<svg xmlns="http://www.w3.org/2000/svg" viewBox="0 0 32 32" fill="none">
  <!-- Background Circle (Muted Surface Color) -->
  <circle cx="16" cy="16" r="16" fill="#F5F5F5"/>
  
  <!-- Torso / Hoodie -->
  <path d="M6 32C6 28 10 24 16 24C22 24 26 28 26 32H6Z" fill="#1A1A1A"/>
  
  <!-- Polo Shirt Collar -->
  <path d="M12 24.5L16 27L20 24.5V23L16 25L12 23V24.5Z" fill="#4B3621"/>
  
  <!-- Neck -->
  <rect x="13" y="21" width="6" height="4" fill="#F1C27D"/>
  
  <!-- Face -->
  <path d="M10 13C10 9.68629 12.6863 7 16 7C19.3137 7 22 9.68629 22 13V18C22 21.3137 19.3137 24 16 24C12.6863 24 10 21.3137 10 18V13Z" fill="#F1C27D"/>
  
  <!-- Hair (Black, Voluminous) -->
  <path d="M10 13C10 10 12 7 16 7C20 7 22 10 22 13V14C22 12 20 11 16 11C12 11 10 12 10 14V13Z" fill="#0A0A0A"/>
  <path d="M9 12C9 8 12 5 16 5C20 5 23 8 23 12C23 11 20 9 16 9C12 9 9 11 9 12Z" fill="#0A0A0A"/>
  
  <!-- Glasses -->
  <rect x="11.5" y="14.5" width="4" height="3" rx="1" stroke="#333" stroke-width="0.5"/>
  <rect x="16.5" y="14.5" width="4" height="3" rx="1" stroke="#333" stroke-width="0.5"/>
  <path d="M15.5 16H16.5" stroke="#333" stroke-width="0.5"/>
  
  <!-- Eyes (Simple dots) -->
  <circle cx="13.5" cy="16" r="0.4" fill="#333"/>
  <circle cx="18.5" cy="16" r="0.4" fill="#333"/>
  
  <!-- Mouth (Smile) -->
  <path d="M14 20C14.5 21 17.5 21 18 20" stroke="#333" stroke-width="0.6" stroke-linecap="round"/>
</svg>
